<?xml version="1.0" encoding="UTF-8" standalone="no"?>
<!DOCTYPE svg PUBLIC "-//W3C//DTD SVG 1.1//EN" "http://www.w3.org/Graphics/SVG/1.1/DTD/svg11.dtd">
<!-- Generated by graphviz version 2.40.1 (20161225.0304)
 -->
<!-- Title: G Pages: 1 -->
<svg width="254pt" height="188pt" viewBox="0.00 0.00 253.53 188.00" xmlns="http://www.w3.org/2000/svg" xmlns:xlink="http://www.w3.org/1999/xlink">
<g id="graph0" class="graph" transform="scale(1 1) rotate(0) translate(4 184)">
<title>G</title>
<polygon fill="#ffffff" stroke="transparent" points="-4,4 -4,-184 249.531,-184 249.531,4 -4,4"/>
<!-- Retinol -->
<g id="node1" class="node">
<title>Retinol</title>
<ellipse fill="#ff4040" stroke="#000000" cx="39.4714" cy="-90" rx="39.4428" ry="18"/>
<text text-anchor="middle" x="39.4714" y="-85.8" font-family="Times,serif" font-size="14.00" fill="#000000">Retinol</text>
</g>
<!-- AHAs/BHAs -->
<g id="node3" class="node">
<title>AHAs/BHAs</title>
<ellipse fill="#caff70" stroke="#000000" cx="105.4714" cy="-18" rx="62.5566" ry="18"/>
<text text-anchor="middle" x="105.4714" y="-13.8" font-family="Times,serif" font-size="14.00" fill="#000000">AHAs/BHAs</text>
</g>
<!-- Retinol&#45;&#45;AHAs/BHAs -->
<g id="edge1" class="edge">
<title>Retinol--AHAs/BHAs</title>
<path fill="none" stroke="#000000" d="M54.779,-73.3008C65.1368,-62.0013 78.7962,-47.1002 89.326,-35.6132"/>
</g>
<!-- Copper peptides -->
<g id="node2" class="node">
<title>Copper peptides</title>
<ellipse fill="#ff4040" stroke="#000000" cx="171.4714" cy="-90" rx="74.1194" ry="18"/>
<text text-anchor="middle" x="171.4714" y="-85.8" font-family="Times,serif" font-size="14.00" fill="#000000">Copper peptides</text>
</g>
<!-- Copper peptides&#45;&#45;AHAs/BHAs -->
<g id="edge2" class="edge">
<title>Copper peptides--AHAs/BHAs</title>
<path fill="none" stroke="#000000" d="M155.1568,-72.2022C144.9265,-61.0419 131.7929,-46.7143 121.5983,-35.593"/>
</g>
<!-- Ferrulic acid -->
<g id="node4" class="node">
<title>Ferrulic acid</title>
<ellipse fill="#caff70" stroke="#000000" cx="171.4714" cy="-162" rx="60.2071" ry="18"/>
<text text-anchor="middle" x="171.4714" y="-157.8" font-family="Times,serif" font-size="14.00" fill="#000000">Ferrulic acid</text>
</g>
<!-- Ferrulic acid&#45;&#45;Copper peptides -->
<g id="edge3" class="edge">
<title>Ferrulic acid--Copper peptides</title>
<path fill="none" stroke="#000000" d="M171.4714,-143.8314C171.4714,-133 171.4714,-119.2876 171.4714,-108.4133"/>
</g>
</g>
</svg>