<?xml version="1.0" encoding="UTF-8" standalone="no"?>
<!DOCTYPE svg PUBLIC "-//W3C//DTD SVG 1.1//EN" "http://www.w3.org/Graphics/SVG/1.1/DTD/svg11.dtd">
<!-- Generated by graphviz version 2.40.1 (20161225.0304)
 -->
<!-- Title: G Pages: 1 -->
<svg width="549pt" height="260pt" viewBox="0.00 0.00 548.91 260.00" xmlns="http://www.w3.org/2000/svg" xmlns:xlink="http://www.w3.org/1999/xlink">
<g id="graph0" class="graph" transform="scale(1 1) rotate(0) translate(4 256)">
<title>G</title>
<polygon fill="#ffffff" stroke="transparent" points="-4,4 -4,-256 544.9091,-256 544.9091,4 -4,4"/>
<g id="node1" class="node">
<title/>
<ellipse fill="none" stroke="#000000" cx="201.525" cy="-234" rx="27" ry="18"/>
</g>
<!-- [a] -->
<g id="node2" class="node">
<title>[a]</title>
<ellipse fill="none" stroke="#000000" cx="201.525" cy="-162" rx="27" ry="18"/>
<text text-anchor="middle" x="201.525" y="-157.8" font-family="Times,serif" font-size="14.00" fill="#000000">[a]</text>
</g>
<!-- &#45;&gt;[a] -->
<g id="edge1" class="edge">
<title>-&gt;[a]</title>
<path fill="none" stroke="#000000" d="M201.525,-215.8314C201.525,-208.131 201.525,-198.9743 201.525,-190.4166"/>
<polygon fill="#000000" stroke="#000000" points="205.0251,-190.4132 201.525,-180.4133 198.0251,-190.4133 205.0251,-190.4132"/>
</g>
<!-- [a, b] -->
<g id="node3" class="node">
<title>[a, b]</title>
<ellipse fill="none" stroke="#000000" cx="145.525" cy="-90" rx="31.3198" ry="18"/>
<text text-anchor="middle" x="145.525" y="-85.8" font-family="Times,serif" font-size="14.00" fill="#000000">[a, b]</text>
</g>
<!-- [a]&#45;&gt;[a, b] -->
<g id="edge2" class="edge">
<title>[a]-&gt;[a, b]</title>
<path fill="none" stroke="#000000" d="M188.8177,-145.6621C181.7586,-136.5861 172.8288,-125.1049 164.9154,-114.9306"/>
<polygon fill="#000000" stroke="#000000" points="167.4727,-112.5176 158.5706,-106.7729 161.9473,-116.8153 167.4727,-112.5176"/>
</g>
<!-- [a], [b] -->
<g id="node4" class="node">
<title>[a], [b]</title>
<ellipse fill="none" stroke="#000000" cx="313.525" cy="-90" rx="37.6794" ry="18"/>
<text text-anchor="middle" x="313.525" y="-85.8" font-family="Times,serif" font-size="14.00" fill="#000000">[a], [b]</text>
</g>
<!-- [a]&#45;&gt;[a], [b] -->
<g id="edge3" class="edge">
<title>[a]-&gt;[a], [b]</title>
<path fill="none" stroke="#000000" d="M221.0339,-149.4586C237.8822,-138.6275 262.5361,-122.7785 282.1541,-110.167"/>
<polygon fill="#000000" stroke="#000000" points="284.2482,-112.9817 290.7673,-104.6299 280.4628,-107.0934 284.2482,-112.9817"/>
</g>
<!-- [a, b, c] -->
<g id="node5" class="node">
<title>[a, b, c]</title>
<ellipse fill="none" stroke="#000000" cx="40.525" cy="-18" rx="40.5499" ry="18"/>
<text text-anchor="middle" x="40.525" y="-13.8" font-family="Times,serif" font-size="14.00" fill="#000000">[a, b, c]</text>
</g>
<!-- [a, b]&#45;&gt;[a, b, c] -->
<g id="edge4" class="edge">
<title>[a, b]-&gt;[a, b, c]</title>
<path fill="none" stroke="#000000" d="M125.2799,-76.1177C110.0557,-65.6782 88.9232,-51.1874 71.5687,-39.2872"/>
<polygon fill="#000000" stroke="#000000" points="73.1158,-36.1042 62.8891,-33.3354 69.1571,-41.8773 73.1158,-36.1042"/>
</g>
<!-- [a, b], [c] -->
<g id="node6" class="node">
<title>[a, b], [c]</title>
<ellipse fill="none" stroke="#000000" cx="145.525" cy="-18" rx="46.9091" ry="18"/>
<text text-anchor="middle" x="145.525" y="-13.8" font-family="Times,serif" font-size="14.00" fill="#000000">[a, b], [c]</text>
</g>
<!-- [a, b]&#45;&gt;[a, b], [c] -->
<g id="edge5" class="edge">
<title>[a, b]-&gt;[a, b], [c]</title>
<path fill="none" stroke="#000000" d="M145.525,-71.8314C145.525,-64.131 145.525,-54.9743 145.525,-46.4166"/>
<polygon fill="#000000" stroke="#000000" points="149.0251,-46.4132 145.525,-36.4133 142.0251,-46.4133 149.0251,-46.4132"/>
</g>
<!-- [a, c], [b] -->
<g id="node7" class="node">
<title>[a, c], [b]</title>
<ellipse fill="none" stroke="#000000" cx="257.525" cy="-18" rx="46.9091" ry="18"/>
<text text-anchor="middle" x="257.525" y="-13.8" font-family="Times,serif" font-size="14.00" fill="#000000">[a, c], [b]</text>
</g>
<!-- [a], [b]&#45;&gt;[a, c], [b] -->
<g id="edge6" class="edge">
<title>[a], [b]-&gt;[a, c], [b]</title>
<path fill="none" stroke="#000000" d="M300.2537,-72.937C293.4494,-64.1886 285.0229,-53.3545 277.456,-43.6256"/>
<polygon fill="#000000" stroke="#000000" points="279.9921,-41.1854 271.0899,-35.4407 274.4666,-45.483 279.9921,-41.1854"/>
</g>
<!-- [a], [b, c] -->
<g id="node8" class="node">
<title>[a], [b, c]</title>
<ellipse fill="none" stroke="#000000" cx="369.525" cy="-18" rx="46.9091" ry="18"/>
<text text-anchor="middle" x="369.525" y="-13.8" font-family="Times,serif" font-size="14.00" fill="#000000">[a], [b, c]</text>
</g>
<!-- [a], [b]&#45;&gt;[a], [b, c] -->
<g id="edge7" class="edge">
<title>[a], [b]-&gt;[a], [b, c]</title>
<path fill="none" stroke="#000000" d="M326.7962,-72.937C333.6005,-64.1886 342.027,-53.3545 349.5939,-43.6256"/>
<polygon fill="#000000" stroke="#000000" points="352.5833,-45.483 355.96,-35.4407 347.0578,-41.1854 352.5833,-45.483"/>
</g>
<!-- [a], [b], [c] -->
<g id="node9" class="node">
<title>[a], [b], [c]</title>
<ellipse fill="none" stroke="#000000" cx="487.525" cy="-18" rx="53.2685" ry="18"/>
<text text-anchor="middle" x="487.525" y="-13.8" font-family="Times,serif" font-size="14.00" fill="#000000">[a], [b], [c]</text>
</g>
<!-- [a], [b]&#45;&gt;[a], [b], [c] -->
<g id="edge8" class="edge">
<title>[a], [b]-&gt;[a], [b], [c]</title>
<path fill="none" stroke="#000000" d="M342.2575,-78.1107C369.9874,-66.6362 412.3334,-49.1137 444.1633,-35.9428"/>
<polygon fill="#000000" stroke="#000000" points="445.7741,-39.0641 453.6761,-32.0064 443.0976,-32.596 445.7741,-39.0641"/>
</g>
</g>
</svg>